<svg width="351" height="97" viewBox="0 0 351 97" fill="none" xmlns="http://www.w3.org/2000/svg">
<path d="M312.423 83.8527C310.761 83.8309 309.271 84.9236 307.554 84.7588C306.744 85.6041 305.665 85.1953 304.724 85.4622C304.362 85.8816 303.768 85.5343 303.41 86.0024C302.801 86.0482 302.197 86.1428 301.589 86.1886C301.263 86.5072 300.821 86.4425 300.43 86.472C300.126 86.4949 299.771 86.4236 299.58 86.7811C299.015 86.8237 298.454 86.915 297.889 86.9575C297.603 87.2242 297.252 87.2016 296.948 87.2245C296.687 87.2442 296.379 87.2183 296.141 87.5304C293.997 87.4959 291.985 88.6278 289.838 88.5445C289.429 88.9184 288.937 88.7595 288.462 88.8442C288.162 88.9159 287.76 88.7991 287.525 89.1599C286.656 89.2254 285.834 89.3364 284.965 89.4018C284.473 89.831 283.847 89.6332 283.285 89.7245C282.985 89.7961 282.583 89.6793 282.348 90.0402C281.392 90.1122 280.44 90.233 279.484 90.305C278.779 90.7993 277.931 90.569 277.153 90.6767C276.809 90.7516 276.407 90.6349 276.128 90.999C274.868 91.0939 273.656 91.2343 272.396 91.3293C272.153 91.5926 271.846 91.5668 271.498 91.593C270.629 91.6584 269.76 91.7239 268.891 91.7894C268.631 91.809 268.37 91.8287 268.171 92.0887C266.39 92.2229 264.612 92.4059 262.831 92.5401C262.545 92.8067 262.194 92.7842 261.89 92.8071C259.848 92.961 257.806 93.1148 255.764 93.2687C255.459 93.2916 255.105 93.2203 254.913 93.5779C247.18 94.1606 239.446 94.7433 231.756 95.3227C231.513 94.9979 231.173 95.1216 230.869 95.1445C228.783 95.3016 226.698 95.4588 224.569 95.6192C224.221 95.6454 223.878 95.7203 223.599 95.4962C221.73 95.637 219.858 95.729 217.99 95.8698C217.755 95.6425 217.451 95.6654 217.146 95.6883C216.104 95.7669 215.061 95.8454 214.062 95.9207C213.758 95.9437 213.453 95.9666 213.135 95.7945C211.614 95.9091 210.046 95.9782 208.526 96.0928C208.29 95.8655 208.029 95.8851 207.769 95.9048C206.856 95.9735 205.944 96.0422 205.032 96.111C204.727 96.1339 204.423 96.1568 204.104 95.9848C202.627 96.0961 201.146 96.1586 199.626 96.2732C199.39 96.0459 199.13 96.0655 198.869 96.0852C198.043 96.1474 197.218 96.2096 196.436 96.2685C196.132 96.2914 195.828 96.3143 195.509 96.1423C194.075 96.2503 192.638 96.3096 191.204 96.4176C190.968 96.1903 190.708 96.21 190.447 96.2296C189.621 96.2918 188.796 96.354 188.014 96.4129C187.71 96.4358 187.406 96.4588 187.087 96.2867C185.87 96.3784 184.694 96.418 183.477 96.5097C183.242 96.2824 182.981 96.302 182.72 96.3216C181.982 96.3773 181.286 96.4297 180.548 96.4853C180.287 96.505 180.026 96.5246 179.795 96.346C178.665 96.4311 177.488 96.4708 176.359 96.5559C176.029 96.2376 175.649 96.4133 175.298 96.3908C174.595 96.3457 173.922 96.6905 173.241 96.3497C172.198 96.4282 171.152 96.4581 170.066 96.5399C169.736 96.2217 169.356 96.3973 169.005 96.3748C168.393 96.3719 167.799 96.6127 167.252 96.3108C166.296 96.3828 165.337 96.4061 164.381 96.4781C164.098 96.2053 163.758 96.329 163.407 96.3064C162.838 96.3002 162.245 96.541 161.698 96.2391C160.742 96.3112 159.782 96.3344 158.826 96.4064C158.497 96.0882 158.117 96.2639 157.765 96.2413C157.153 96.2384 156.56 96.4792 156.013 96.1773C155.144 96.2428 154.271 96.2595 153.446 96.3217C153.116 96.0035 152.736 96.1791 152.385 96.1566C151.86 96.1471 151.309 96.3847 150.762 96.0828C149.894 96.1482 149.021 96.165 148.195 96.2272C147.866 95.9089 147.486 96.0846 147.134 96.062C146.609 96.0526 146.059 96.2901 145.512 95.9882C144.643 96.0537 143.771 96.0704 142.945 96.1326C142.659 95.8111 142.322 95.9835 141.971 95.9609C141.533 95.9449 141.109 96.1239 140.696 95.8609C139.871 95.9231 139.085 95.9333 138.26 95.9955C137.973 95.674 137.637 95.8464 137.285 95.8238C136.804 95.8111 136.337 95.9933 135.88 95.7336C135.012 95.7991 134.182 95.8126 133.313 95.878C133.031 95.6052 132.69 95.7289 132.339 95.7064C131.901 95.6904 131.478 95.8693 131.065 95.6063C130.369 95.6587 129.627 95.6656 128.932 95.718C128.646 95.3965 128.309 95.5689 127.958 95.5463C127.52 95.5303 127.096 95.7093 126.683 95.4463C125.988 95.4987 125.246 95.5056 124.551 95.558C124.268 95.2852 123.971 95.4056 123.663 95.3797C123.359 95.4027 123.055 95.4256 122.736 95.2535C122.041 95.3059 121.299 95.3128 120.604 95.3652C120.317 95.0437 119.981 95.2161 119.63 95.1935C119.191 95.1775 118.768 95.3565 118.355 95.0935C117.79 95.1361 117.225 95.1786 116.657 95.1724C116.37 94.8509 116.034 95.0233 115.683 95.0008C115.245 94.9848 114.821 95.1637 114.408 94.9007C113.843 94.9433 113.275 94.9371 112.71 94.9797C112.427 94.7069 112.13 94.8273 111.823 94.8014C111.519 94.8244 111.218 94.896 110.896 94.6752C110.331 94.7178 109.766 94.7604 109.197 94.7542C108.915 94.4814 108.618 94.6018 108.31 94.5759C108.006 94.5989 107.706 94.6705 107.383 94.4497C106.818 94.4923 106.25 94.4861 105.685 94.5287C105.402 94.2559 105.106 94.3763 104.798 94.3504C104.494 94.3734 104.193 94.445 103.871 94.2242C103.306 94.2668 102.737 94.2606 102.173 94.3032C101.89 94.0304 101.593 94.1508 101.285 94.1249C100.981 94.1479 100.681 94.2195 100.358 93.9987C99.8803 94.0347 99.4422 94.0187 98.9643 94.0547C97.8346 94.1399 96.6897 93.4419 95.5387 93.8227C95.256 93.5499 94.9592 93.6703 94.6514 93.6445C94.3473 93.6674 94.0468 93.7391 93.7243 93.5183C93.1161 93.5641 92.3487 93.818 91.8488 93.5616C90.9829 93.0876 90.1758 93.3935 89.3393 93.3095C89.0566 93.0367 88.7598 93.1571 88.452 93.1313C88.1479 93.1542 87.8474 93.2258 87.5249 93.0051C87.047 93.0411 86.4932 93.2299 86.0875 93.0644C85.0515 92.6523 83.9078 93.1306 82.9624 92.7607C82.0604 92.3875 81.2533 92.6934 80.4131 92.5606C79.4824 92.3857 78.5406 92.0645 77.5958 92.2827C77.1283 91.8768 76.5495 92.3126 76.0856 91.9554C74.7063 92.2064 73.3766 91.3752 72.0047 91.7237C71.211 91.0483 70.2992 91.7051 69.5313 91.3709C68.5424 91.0042 67.5652 91.372 66.7103 91.0443C65.9894 90.7555 65.2294 91.1068 64.6787 90.7562C63.896 90.227 62.9408 90.8871 62.2267 90.1077C62.1796 90.0622 62.1361 90.0655 62.0964 90.1175C61.0286 90.443 59.9852 89.9335 58.9639 89.7163C58.1635 89.5315 57.2224 89.7985 56.5156 89.1165L56.4685 89.0711C55.6577 89.3282 54.9148 88.747 54.1615 88.6077C53.3648 88.4717 52.4126 88.5924 51.6661 87.9624C51.619 87.917 51.5755 87.9203 51.5321 87.9235C50.6124 87.8948 49.6743 87.6224 48.8518 87.1452C48.8047 87.0997 48.7178 87.1062 48.6309 87.1128C47.628 87.1393 46.715 86.6199 45.7842 86.445C45.1179 86.2991 44.4043 86.1078 43.7777 85.9099C43.1474 85.6633 42.3801 85.9172 41.8508 85.2709C41.8037 85.2254 41.6696 85.1865 41.5827 85.193C40.8552 85.3949 40.2065 84.9046 39.5799 84.7068C38.6853 84.431 37.7509 84.2074 36.8813 83.6847C36.1966 83.2951 35.3851 82.9641 34.6643 82.6753C34.2115 82.4644 33.7152 82.2567 33.2985 81.945C32.5195 81.4645 31.6934 80.9386 30.9144 80.4581C29.9035 79.799 28.8057 79.1465 27.9465 78.1819C27.1381 77.3115 26.1633 76.5516 25.4345 75.5772C24.9957 74.9731 24.5062 74.2747 24.0638 73.6218C23.625 73.0177 23.8196 72.1207 23.1746 71.6792C23.0804 71.5882 23.0583 71.2958 23.04 71.0521C22.9188 69.4437 22.7107 67.8418 22.7235 66.2724C22.7516 65.486 22.9064 64.641 23.2424 63.8805C23.4339 63.5229 23.4841 63.029 23.6719 62.6227C23.932 62.0149 24.1486 61.4104 24.4086 60.8026C25.1166 59.1808 26.1581 57.9259 27.1922 56.5735C27.8684 55.6893 28.4393 54.568 29.3076 53.9143C29.8864 53.4786 30.4108 52.8999 30.9897 52.4641C31.6518 51.9731 32.4045 51.5243 32.8707 50.7539C33.1455 50.3411 33.5726 50.2108 33.8657 50.0417C34.5749 49.5961 35.1936 49.1084 35.9462 48.6595C36.3226 48.4351 36.8366 48.2984 37.1076 47.8368C37.227 47.6807 37.3573 47.6709 37.484 47.6124C38.1754 47.5112 38.6564 46.9358 39.2463 46.6463C39.753 46.4121 40.1036 45.8465 40.7192 45.8981C41.2442 45.9076 41.5985 45.3907 42.0617 45.1597C42.3585 45.0393 42.7459 44.9611 42.9484 44.7498C43.4765 44.2199 44.179 44.265 44.7578 43.8292C45.1703 43.504 45.7167 43.2178 46.2668 42.9803C46.9002 42.6875 47.6424 42.6806 48.1197 42.0564C48.1595 42.0044 48.2898 41.9946 48.3731 41.9393C49.1838 41.6821 49.9946 41.425 50.6928 40.8332C50.7326 40.7812 50.8195 40.7746 50.9064 40.7681C51.7937 40.9463 52.6259 40.3934 53.1613 39.961C53.8632 39.4179 54.8631 39.9308 55.3581 38.9622C56.1548 39.0982 56.7153 38.4187 57.4429 38.2169C58.2972 37.9564 59.2964 37.8811 60.0307 37.1886C60.0307 37.1886 60.0705 37.1366 60.1176 37.1821C61.0918 37.3537 61.8188 36.5637 62.7238 36.3975C63.7157 36.2247 64.7437 35.9512 65.5686 35.3008C65.6084 35.2488 65.6518 35.2456 65.6953 35.2423C66.8867 35.3976 67.9722 34.7276 68.9929 34.3566C69.9701 33.9889 71.1255 34.2449 71.9754 33.3476C72.0152 33.2956 72.0586 33.2923 72.1021 33.289C73.5034 33.3305 74.6936 32.3095 76.1022 32.4485C76.3445 32.1851 76.7429 32.2531 76.9815 31.9411C77.4594 31.9051 77.9447 31.9665 78.3247 31.7908C79.4574 31.1663 80.7467 31.4613 81.7998 30.9408C82.643 30.5341 83.4324 30.5727 84.2469 30.3643C84.5326 30.0977 84.8839 30.1202 85.188 30.0973C85.4487 30.0777 85.7565 30.1035 85.9517 29.7947C86.5165 29.7521 87.0776 29.6608 87.6424 29.6183C87.8847 29.3549 88.236 29.3775 88.5401 29.3546C88.8008 29.3349 89.0615 29.3153 89.2603 29.0552C89.912 29.0061 90.6035 28.905 91.2552 28.8559C91.5807 28.5373 92.0226 28.602 92.4136 28.5725C92.7177 28.5496 93.0689 28.5722 93.2641 28.2634C94.1765 28.1946 95.0852 28.0771 95.9976 28.0084C96.533 27.5759 97.1596 27.7738 97.7208 27.6825C98.0647 27.6076 98.4667 27.7243 98.7451 27.3602C100.005 27.2653 101.218 27.1249 102.478 27.0299C102.72 26.7666 103.028 26.7924 103.376 26.7662C104.592 26.6746 105.809 26.5829 107.068 26.488C107.373 26.4651 107.637 26.4942 107.876 26.1821C112.351 25.8449 116.826 25.5077 121.301 25.1705C121.536 25.3979 121.84 25.3749 122.144 25.352C123.318 25.2636 124.491 25.1752 125.664 25.0869C125.968 25.0639 126.272 25.041 126.591 25.2131C127.112 25.1738 127.637 25.1832 128.198 25.0919C129.02 24.981 129.672 25.52 130.386 25.7114C131.277 25.9383 131.191 26.533 131.285 27.2121C131.369 27.745 131.004 28.1156 130.707 28.236C130.074 28.5288 129.549 29.1075 128.796 28.9682C128.554 29.2315 128.25 29.2544 127.902 29.2806C127.077 29.3428 126.251 29.405 125.469 29.464C125.208 29.4836 124.948 29.5032 124.749 29.7633C122.316 29.9466 119.843 30.182 117.41 30.3653C117.124 30.6319 116.773 30.6094 116.469 30.6323C114.384 30.7894 112.298 30.9465 110.169 31.1069C109.865 31.1299 109.514 31.1073 109.319 31.4161C107.407 31.5602 105.499 31.7529 103.544 31.9003C103.302 32.1636 102.994 32.1378 102.646 32.164C101.777 32.2294 100.908 32.2949 100.039 32.3604C99.7788 32.38 99.5181 32.3997 99.3192 32.6597C98.2331 32.7416 97.1071 32.8754 96.021 32.9573C95.529 33.3865 94.9024 33.1886 94.3412 33.2799C93.9973 33.3548 93.6387 33.2348 93.4038 33.5956C92.6217 33.6545 91.8868 33.7589 91.1048 33.8179C90.7358 34.1398 90.294 34.075 89.8595 34.1078C89.5591 34.1794 89.157 34.0627 88.922 34.4235C88.2269 34.4759 87.492 34.5802 86.7968 34.6326C86.5111 34.8992 86.1598 34.8767 85.8557 34.8996C85.595 34.9192 85.2872 34.8934 85.092 35.2022C84.5272 35.2448 83.9661 35.3361 83.4013 35.3786C83.036 35.7493 82.4455 35.4507 82.0875 35.9188C80.7223 35.7766 79.5321 36.7975 78.1743 36.7528C77.0808 36.7372 76.0748 37.3031 75.0939 37.6221C74.3663 37.824 73.4863 37.7433 72.9075 38.179C71.9994 38.8846 70.7786 38.3394 70.0155 39.2302C69.9758 39.2822 69.9323 39.2855 69.8889 39.2887C68.7843 39.1269 67.7783 39.6928 66.8953 40.1515C66.0956 40.5549 65.114 40.2857 64.5211 41.1147L64.4813 41.1667C63.5977 41.0372 62.9466 41.6745 62.1793 41.9283C61.2418 42.2441 60.2897 42.3648 59.4648 43.0152C59.3816 43.0704 59.2984 43.1257 59.2078 43.0835C58.3205 42.9053 57.6731 43.5913 56.9058 43.8452C55.9285 44.2129 54.9078 44.5839 53.938 45.0491C53.0513 45.4591 52.2081 45.8657 51.3177 46.2269C50.5143 46.5815 49.6674 46.9394 48.9582 47.385C48.4191 47.7687 47.7129 47.6749 47.1922 48.3023C46.9101 48.6177 46.2076 48.5726 45.8025 48.9952C45.231 49.5285 44.4489 49.5874 43.8266 50.0264C43.4105 50.3028 42.8096 50.4462 42.3501 50.7259C41.8942 51.0543 41.4273 51.2365 41.0185 51.6105C40.6893 51.8803 40.2769 52.2055 39.9728 52.2284C38.9808 52.4012 38.2937 53.1392 37.5012 53.6401C36.9982 53.923 36.5283 54.6447 35.9782 54.8822C35.2579 55.1815 34.9765 56.085 34.2416 56.1894C33.9411 56.2611 34.0066 56.5502 33.8401 56.6608C33.044 57.1129 32.4438 57.8444 31.7456 58.4362C31.0437 58.9792 30.5413 59.8504 29.9447 60.6306C29.6663 60.9946 29.3444 61.362 29.1602 61.817C28.6652 62.7856 27.9927 63.7186 27.7223 64.7683C27.3148 66.3185 27.2187 67.9433 27.644 69.5288C27.764 69.9609 27.8986 70.588 28.3625 70.9451C28.685 71.1659 28.8159 71.7443 28.9248 72.0301C29.3061 73.0308 30.1212 73.4105 30.6976 74.1023C31.2233 74.6999 31.7961 75.343 32.43 75.6383C33.1111 75.9791 33.6331 76.528 34.3576 76.8655C35.0821 77.2031 35.8862 77.4366 36.5385 77.9756C36.8647 78.2451 37.2594 78.2644 37.5782 78.4365C38.4838 78.8584 39.3895 79.2803 40.2952 79.7022C40.7914 79.9099 41.3599 79.9161 41.8599 80.1725C42.7729 80.6919 43.8553 80.5613 44.6961 81.2822C44.7904 81.3732 44.9207 81.3633 45.0511 81.3535C45.7823 81.2004 46.4707 81.6387 47.0539 81.8398C47.6407 82.0897 48.4007 81.7383 48.8505 82.4887C48.8542 82.5375 48.9845 82.5276 49.0714 82.5211C49.9257 82.2606 50.7879 82.6859 51.4218 82.9812C52.0558 83.2765 52.8519 82.8244 53.2619 83.6268C53.2619 83.6268 53.3053 83.6235 53.3488 83.6203C54.2428 83.3078 55.116 83.8792 55.9599 84.0607C56.8001 84.1935 57.7559 84.1215 58.5422 84.6994C58.5893 84.7449 58.6328 84.7416 58.6762 84.7383C59.6137 84.4226 60.5267 84.942 61.3308 85.1755C62.1783 85.4058 63.1592 85.0868 63.9094 85.7655C63.9565 85.811 64 85.8077 64.0434 85.8044C65.1981 85.4723 66.3718 85.9721 67.4366 86.186C68.4579 86.4031 69.5654 86.0255 70.5366 86.7366C70.5837 86.7821 70.6271 86.7788 70.6706 86.7756C72.0027 86.4791 73.2927 87.3622 74.5777 87.0203C74.8641 87.3419 75.3273 87.1109 75.6535 87.3804C76.2183 87.3379 76.7868 87.344 77.3516 87.3015C77.6814 87.6197 78.1012 87.392 78.4273 87.6616C78.9487 87.6223 79.5459 87.4302 79.9951 87.5925C81.2049 87.9915 82.4789 87.5033 83.6452 87.9056C84.6776 88.269 85.615 87.9533 86.5855 88.0762C86.8682 88.349 87.165 88.2286 87.4728 88.2544C87.7335 88.2348 87.9942 88.2151 88.2261 88.3937C88.704 88.3577 89.1819 88.3217 89.6635 88.3344C91.1119 88.4214 92.5787 88.752 94.0014 88.4977C94.2842 88.7705 94.5809 88.6501 94.8887 88.676C95.1929 88.653 95.4933 88.5814 95.8158 88.8022C96.3806 88.7596 96.9852 88.665 97.5573 88.72C99.0058 88.8069 100.473 89.1375 101.895 88.8833C102.178 89.1561 102.475 89.0357 102.783 89.0615C103.087 89.0386 103.387 88.9669 103.71 89.1877C104.405 89.1353 105.147 89.1284 105.842 89.076C106.125 89.3488 106.422 89.2284 106.729 89.2543C107.034 89.2313 107.334 89.1597 107.657 89.3805C108.352 89.3281 109.094 89.3212 109.789 89.2688C110.072 89.5416 110.369 89.4212 110.676 89.447C111.028 89.4696 111.411 89.3426 111.734 89.5634C112.386 89.5143 113.084 89.5107 113.736 89.4616C114.022 89.7831 114.359 89.6107 114.71 89.6332C115.148 89.6492 115.572 89.4703 115.985 89.7333C116.68 89.6809 117.422 89.674 118.117 89.6216C118.4 89.8944 118.697 89.774 119.005 89.7998C119.309 89.7769 119.609 89.7052 119.932 89.926C120.627 89.8736 121.369 89.8667 122.064 89.8144C122.351 90.1359 122.687 89.9635 123.038 89.986C123.477 90.002 123.9 89.8231 124.313 90.0861C124.878 90.0435 125.446 90.0497 126.011 90.0071C126.298 90.3287 126.634 90.1563 126.985 90.1788C127.424 90.1948 127.847 90.0158 128.26 90.2788C128.955 90.2264 129.697 90.2195 130.393 90.1671C130.679 90.4887 131.016 90.3163 131.367 90.3388C131.805 90.3548 132.228 90.1759 132.641 90.4388C133.337 90.3865 134.079 90.3796 134.774 90.3272C135.057 90.6 135.353 90.4796 135.661 90.5054C136.056 90.5247 136.479 90.3457 136.849 90.612C137.457 90.5661 138.12 90.6633 138.717 90.4712C139.532 90.2628 140.238 90.9448 141.057 90.7851C141.878 90.6742 142.708 90.6607 143.493 90.6505C143.78 90.972 144.116 90.7996 144.467 90.8222C144.906 90.8382 145.329 90.6592 145.742 90.9222C146.524 90.8633 147.266 90.8564 148.048 90.7974C148.335 91.119 148.671 90.9466 149.023 90.9691C149.504 90.9819 149.971 90.7996 150.428 91.0593C151.036 91.0135 151.644 90.9677 152.256 90.9706C154.041 90.8851 155.791 91.4885 157.55 91.0619C157.836 91.3834 158.173 91.211 158.524 91.2335C159.006 91.2463 159.472 91.064 159.929 91.3237C160.754 91.2615 161.54 91.2513 162.366 91.1891C162.695 91.5074 163.075 91.3317 163.427 91.3543C163.952 91.3637 164.502 91.1262 165.049 91.4281C165.918 91.3626 166.747 91.3492 167.616 91.2837C167.899 91.5565 168.239 91.4328 168.59 91.4554C169.028 91.4714 169.452 91.2924 169.865 91.5554C170.864 91.4801 171.867 91.4535 172.866 91.3782C173.196 91.6965 173.576 91.5208 173.927 91.5434C174.452 91.5528 175.002 91.3153 175.55 91.6172C176.549 91.5419 177.552 91.5154 178.551 91.4401C178.881 91.7583 179.261 91.5826 179.612 91.6052C180.401 91.6438 181.162 91.2924 181.973 91.6234C183.189 91.5317 184.366 91.4921 185.583 91.4004C185.818 91.6277 186.079 91.6081 186.34 91.5885C187.078 91.5328 187.773 91.4804 188.512 91.4248C188.773 91.4051 189.033 91.3855 189.265 91.5641C190.612 91.4626 191.963 91.4098 193.309 91.3084C193.545 91.5357 193.806 91.5161 194.066 91.4964C194.979 91.4277 195.891 91.3589 196.803 91.2902C197.108 91.2673 197.412 91.2443 197.731 91.4164C199.251 91.3018 200.819 91.2327 202.34 91.1181C202.579 91.3942 202.879 91.3225 203.183 91.2996C204.226 91.221 205.269 91.1425 206.268 91.0672C206.572 91.0443 206.876 91.0213 207.195 91.1934C208.89 91.0657 210.544 90.9901 212.239 90.8624C212.474 91.0897 212.778 91.0668 213.083 91.0439C214.082 90.9686 215.038 90.8966 216.037 90.8213C216.341 90.7984 216.645 90.7754 216.964 90.9475C219.354 90.7674 221.79 90.6329 224.18 90.4528C224.415 90.6801 224.719 90.6572 225.024 90.6343C235.581 89.8388 246.182 89.04 256.74 88.2445C257.044 88.2216 257.308 88.2507 257.547 87.9386C260.327 87.7291 263.104 87.4709 265.928 87.2581C266.171 86.9947 266.478 87.0206 266.826 86.9944C267.955 86.9092 269.085 86.8241 270.215 86.739C270.519 86.7161 270.783 86.7452 271.022 86.4331C272.412 86.3284 273.799 86.1749 275.189 86.0701C275.895 85.5758 276.742 85.806 277.52 85.6984C277.864 85.6235 278.266 85.7402 278.545 85.3761C279.587 85.2975 280.627 85.1702 281.713 85.0884C282.248 84.6559 282.875 84.8538 283.436 84.7625C283.78 84.6876 284.182 84.8043 284.46 84.4402C285.329 84.3747 286.151 84.2638 287.02 84.1983C287.389 83.8764 287.831 83.9412 288.265 83.9084C288.566 83.8368 288.968 83.9535 289.203 83.5927C289.898 83.5404 290.633 83.436 291.328 83.3836C291.697 83.0617 292.139 83.1264 292.573 83.0937C292.874 83.022 293.276 83.1388 293.511 82.778C294.075 82.7354 294.64 82.6929 295.201 82.6016C295.487 82.3349 295.838 82.3575 296.142 82.3346C296.403 82.3149 296.711 82.3408 296.95 82.0287C297.645 81.9763 298.38 81.8719 299.075 81.8195C299.44 81.4489 300.031 81.7475 300.389 81.2794C300.866 81.2434 301.348 81.2561 301.819 81.1226C303.104 80.7807 304.4 80.585 305.638 80.1976C306.405 79.9438 307.379 80.1154 307.951 79.5822C308.812 78.8311 310.043 79.5226 310.799 78.5343C310.839 78.4823 310.882 78.479 310.93 78.5245C312.078 78.6831 313.127 78.1138 314.01 77.6552C314.933 77.1445 316.059 77.5988 316.775 76.6625C316.775 76.6625 316.819 76.6593 316.862 76.656C317.836 76.8277 318.614 76.1319 319.465 75.8227C320.228 75.5201 321.195 75.5943 321.839 74.8595C321.879 74.8075 321.962 74.7522 322.052 74.7944C322.94 74.9727 323.685 74.4263 324.351 73.984C325.06 73.5385 326.045 73.8564 326.591 72.982C326.631 72.9299 326.761 72.9201 326.848 72.9136C327.735 73.0918 328.383 72.4058 329.146 72.1032C330.124 71.7355 331.152 71.4619 332.074 70.9513C332.451 70.7269 332.965 70.5901 333.24 70.1772C333.355 69.9725 333.529 69.9594 333.659 69.9496C334.307 69.8517 334.839 69.3705 335.331 68.9413C335.617 68.6747 335.997 68.499 336.333 68.3266C337.09 67.9265 337.501 67.0132 338.229 66.8113C338.996 66.5574 339.231 65.6085 340.009 65.5008C340.313 65.4779 340.244 65.14 340.407 64.9807C342.042 63.485 343.532 61.8042 344.736 59.8019C345.046 59.2883 345.078 58.5507 345.444 58.18C346.127 57.3933 345.481 56.3636 345.94 55.4957C346.208 54.9854 346.254 53.8546 345.55 53.2213C345.456 53.1304 345.438 52.8867 345.423 52.6917C345.397 51.7624 344.781 51.1226 344.505 50.3592C344.225 49.547 343.54 49.1574 343.264 48.394C342.996 47.728 342.307 47.2897 341.789 46.7895C340.611 45.6529 339.469 44.4155 338.179 43.5324C337.164 42.8246 336.421 41.6552 335.171 41.3082C334.86 41.2336 334.642 40.6619 334.28 40.4931C333.461 40.0646 332.678 39.5354 331.943 39.0516C331.251 38.5646 330.443 38.2824 329.827 37.6426C329.54 37.321 329.048 37.1621 328.602 37.0486C328.334 36.9708 328.189 36.7856 327.961 36.6558C327.363 36.2597 326.729 35.9643 326.095 35.669C325.595 35.4126 324.936 35.3642 324.592 34.851C324.247 34.3377 323.675 34.2828 323.269 34.1173C322.505 33.8318 321.773 33.3968 321.005 33.0625C320.284 32.7737 319.516 32.4395 318.828 32.0012C318.415 31.7382 317.904 31.3356 317.299 31.4301C316.782 31.5182 316.354 31.0602 315.905 30.898C315.412 30.7391 314.869 30.4859 314.365 30.1807C313.496 29.6581 312.536 29.6813 311.663 29.1099C311.25 28.8469 310.699 28.4963 310.134 28.5389C309.617 28.6269 309.185 28.1202 308.649 27.9646C308.472 27.9289 308.236 27.7016 308.019 27.7179C307.418 27.8613 306.943 27.3579 306.45 27.1989C305.69 26.9621 304.962 26.5758 304.172 26.5373C303.734 26.5213 303.231 26.2161 303.085 26.031C302.52 25.4854 301.807 25.8822 301.245 25.3854C300.916 25.0671 300.188 25.269 299.681 24.9151C299.079 24.4702 298.29 24.4317 297.62 24.2371C297.037 24.036 296.41 23.8381 295.744 23.6922C295.077 23.5464 294.331 23.5046 293.683 23.0143C293.592 22.9721 293.501 22.9299 293.415 22.9364C292.691 23.187 292.078 22.596 291.368 22.4534C290.441 22.3272 289.539 21.954 288.601 21.6816C287.75 21.4026 286.859 21.1756 285.968 20.9487C285.03 20.6762 284.139 20.4493 283.201 20.1768C282.216 19.859 281.198 19.6906 280.213 19.3727C279.633 19.2203 278.898 19.3246 278.333 18.7791C277.956 18.4153 277.261 18.4677 276.823 18.4517C275.986 18.3677 275.146 18.2349 274.465 17.8941C273.697 17.5599 272.879 17.7195 272.064 17.3398C271.564 17.0834 270.803 16.8466 270.148 16.847C269.275 16.8637 268.468 16.5814 267.649 16.153C267.602 16.1075 267.558 16.1108 267.515 16.1141C266.577 16.4298 265.704 15.8584 264.817 15.6801C264.02 15.5441 263.072 15.7136 262.325 15.0836C262.278 15.0382 262.234 15.0414 262.191 15.0447C261.254 15.3604 260.38 14.789 259.493 14.6108C258.696 14.4748 257.748 14.6443 257.001 14.0143C256.954 13.9688 256.911 13.9721 256.867 13.9754C255.93 14.2911 254.894 13.879 254.126 13.5447C253.133 13.1293 252.048 13.7993 251.152 12.9355C251.152 12.9355 251.109 12.9388 251.066 12.942C250.038 13.2156 249.077 12.6507 248.107 12.5278C247.27 12.4437 246.275 12.5678 245.485 11.9411C245.438 11.8956 245.394 11.8989 245.351 11.9021C244.399 12.0229 243.472 11.8967 242.573 11.5723C241.494 11.1634 240.256 11.5508 239.202 10.895C239.202 10.895 239.158 10.8983 239.115 10.9015C238.202 10.9703 237.311 10.7433 236.431 10.6626C235.157 10.5626 233.936 10.0173 232.651 10.3592C231.995 9.77147 231.159 10.2756 230.569 9.97698C229.753 9.59725 228.907 9.95516 228.229 9.66309C227.367 9.23789 226.484 9.69655 225.759 9.35901C224.814 8.98911 223.837 9.35684 222.982 9.02912C222.127 8.70141 221.237 9.06259 220.516 8.77379C219.527 8.40716 218.55 8.77489 217.695 8.44717C216.974 8.15837 216.326 8.25622 215.623 8.21112C215.384 7.93505 215.084 8.0067 214.823 8.02635C214.475 8.05254 214.132 8.12746 213.853 7.90341C212.336 8.06673 210.883 7.34291 209.337 7.70446C208.409 6.9901 207.414 7.70228 206.516 7.37784C205.393 6.97229 204.206 7.45387 203.174 7.09051C202.142 6.72714 201.204 7.04286 200.234 6.91993C199.809 6.51073 199.274 6.94321 198.854 6.58275C198.159 6.63513 197.416 6.64205 196.721 6.69442C196.254 6.28851 195.675 6.72425 195.211 6.36707C194.559 6.41618 193.86 6.41982 193.209 6.46892C192.926 6.19613 192.629 6.31652 192.321 6.2907C192.017 6.31361 191.717 6.38527 191.394 6.16449C190.786 6.21032 190.174 6.20741 189.522 6.25651C189.24 5.98372 188.943 6.10411 188.635 6.07829C188.24 6.05901 187.817 6.23797 187.447 5.97172C186.752 6.0241 186.01 6.03101 185.315 6.08339C185.032 5.8106 184.735 5.93099 184.428 5.90517C184.033 5.88589 183.609 6.06485 183.24 5.7986C182.458 5.85752 181.715 5.86444 180.933 5.92336C180.651 5.65057 180.311 5.77424 179.959 5.75169C179.521 5.73568 179.098 5.91464 178.685 5.65166C177.859 5.71386 177.073 5.72405 176.248 5.78625C175.962 5.46472 175.625 5.63712 175.274 5.61457C174.705 5.60839 174.112 5.84918 173.565 5.54729C172.652 5.61603 171.736 5.63604 170.824 5.70479C170.537 5.38325 170.201 5.55566 169.85 5.53311C169.194 5.53348 168.518 5.82955 167.88 5.48547C166.837 5.56404 165.791 5.59387 164.705 5.67571C164.375 5.35745 163.995 5.53313 163.644 5.51058C162.811 5.4753 161.964 5.83321 161.152 5.50222C159.849 5.60043 158.585 5.64662 157.282 5.74484C157.043 5.46877 156.742 5.54042 156.438 5.56334C155.439 5.63863 154.483 5.71065 153.484 5.78594C153.18 5.80886 152.876 5.83178 152.557 5.65974C150.428 5.82014 148.339 5.92854 146.21 6.08895C145.927 5.81616 145.627 5.88781 145.323 5.91072C142.325 6.13661 139.327 6.36249 136.373 6.5851C136.025 6.61129 135.638 6.68949 135.315 6.46871C131.926 6.72405 128.581 6.97613 125.192 7.23147C124.91 7.54682 124.512 7.47881 124.164 7.505C121.21 7.72761 118.299 7.94694 115.344 8.16955C115.04 8.19247 114.689 8.16992 114.494 8.47872C112.495 8.62931 110.457 8.83191 108.458 8.9825C108.216 9.24584 107.908 9.22002 107.561 9.24621C106.475 9.32805 105.388 9.40989 104.302 9.49173C103.998 9.51464 103.734 9.48555 103.495 9.79763C102.061 9.90566 100.631 10.0624 99.1976 10.1705C98.9553 10.4338 98.6475 10.408 98.2999 10.4342C97.5179 10.4931 96.7793 10.5487 95.9973 10.6077C95.7366 10.6273 95.4759 10.647 95.277 10.907C94.2343 10.9856 93.1953 11.1129 92.1091 11.1947C91.447 11.6858 90.643 11.4523 89.9515 11.5534C89.6076 11.6283 89.2055 11.5115 88.9271 11.8756C87.9279 11.9509 86.9322 12.075 85.933 12.1503C85.441 12.5795 84.8144 12.3816 84.2533 12.4729C83.9528 12.5445 83.5508 12.4278 83.3158 12.7886C82.4469 12.8541 81.5816 12.9683 80.7561 13.0305C80.3908 13.4011 79.9019 13.2909 79.4674 13.3237C79.0366 13.4051 78.5477 13.2949 78.1824 13.6656C77.4872 13.7179 76.7523 13.8223 76.0572 13.8747C75.7316 14.1933 75.2898 14.1286 74.8988 14.1581C74.5947 14.181 74.2434 14.1584 74.0482 14.4672C73.3531 14.5196 72.6182 14.624 71.923 14.6764C71.5541 14.9983 71.1122 14.9335 70.6778 14.9663C70.3773 15.0379 69.9753 14.9212 69.7403 15.282C69.1755 15.3246 68.6144 15.4159 68.0496 15.4584C67.724 15.777 67.2822 15.7123 66.8912 15.7418C66.5871 15.7647 66.2358 15.7421 66.0406 16.0509C65.4324 16.0968 64.8278 16.1913 64.1761 16.2404C63.8903 16.507 63.5391 16.4845 63.235 16.5074C62.9743 16.5271 62.6665 16.5012 62.4279 16.8133C61.863 16.8559 61.3019 16.9472 60.7371 16.9897C60.4513 17.2563 60.1001 17.2338 59.796 17.2567C59.5353 17.2763 59.2275 17.2505 59.0323 17.5593C57.5368 17.4269 56.2162 18.4577 54.6846 18.4261C53.4607 18.4203 52.3244 18.9961 51.1661 19.2794C50.3516 19.4878 49.5334 19.6475 48.7588 19.8039C48.473 20.0705 48.1217 20.048 47.8176 20.0709C47.5569 20.0905 47.2491 20.0647 47.0539 20.3735C45.5296 20.4394 44.2018 21.3727 42.6628 21.2436C41.9793 22.0303 40.9359 21.5207 40.2267 21.9663C39.4741 22.4151 38.7318 22.422 37.9571 22.5785C37.7148 22.8418 37.407 22.816 37.0594 22.8422C36.7988 22.8618 36.5381 22.8814 36.3392 23.1415C34.9379 23.1 33.7477 24.121 32.3391 23.9821C31.5289 24.8274 30.4384 24.2724 29.5989 24.7277C28.6761 25.2384 27.6077 24.9758 26.7718 25.4799C25.9757 25.9321 25.1282 25.7018 24.4153 26.0986C23.4925 26.6093 22.4278 26.3955 21.5882 26.8508C20.8356 27.2997 19.9881 27.0694 19.3186 27.463C18.3561 28.0257 17.2405 27.7176 16.4481 28.2185C15.652 28.6706 14.8987 28.5313 14.1748 28.7819C13.1107 29.1562 11.9848 29.29 10.9169 29.6156C10.2763 29.8109 9.59214 30.0095 8.90434 30.1593C8.5427 30.5787 7.95219 30.2801 7.59055 30.6995C6.8232 30.9534 6.2584 30.9959 5.69359 31.0385C5.45128 31.3018 5.05291 31.2338 4.81427 31.5459C4.20602 31.5917 3.59777 31.6375 3.03663 31.7288C2.17137 31.8431 1.41075 31.6063 0.707636 30.973C0.656845 30.8788 0.530177 30.9374 0.443284 30.9439C0.40656 30.4565 0.369835 29.9691 0.33311 29.4817C0.94746 28.3571 1.82311 27.8009 2.98148 27.5176C3.7525 27.3125 4.46171 26.8669 5.33799 26.8989C5.73268 26.9182 6.07291 26.7945 6.30788 26.4337C7.47726 26.2966 8.61726 25.7695 9.77563 25.4862C10.7639 25.2647 11.85 25.1828 12.7618 24.5259C12.845 24.4706 12.9717 24.4121 13.102 24.4022C13.7972 24.3499 14.4305 24.0571 15.1146 23.8585C16.0521 23.5428 17.0042 23.422 17.9417 23.1063C19.2194 22.6669 20.5552 22.4192 21.8219 21.8336C22.0752 21.7165 22.3794 21.6935 22.6835 21.6706C23.2483 21.6281 23.8131 21.5855 24.3522 21.2018C24.7646 20.8766 25.3404 20.9803 25.8184 20.9443C26.213 20.9635 26.6004 20.8853 26.8317 20.4758C27.1682 20.3034 27.5195 20.3259 27.9105 20.2965C28.2581 20.2703 28.5585 20.1986 28.848 19.9807C28.9312 19.9254 29.0107 19.8214 29.0976 19.8149C30.2346 19.8272 31.2185 18.9688 32.3555 18.9812C32.8371 18.9939 33.2679 18.9125 33.6332 18.5418C33.7164 18.4865 33.7996 18.4312 33.8865 18.4247C35.1575 18.476 36.2357 17.7085 37.4522 17.6168C37.5391 17.6103 37.6731 17.6492 37.7526 17.5452C38.6173 16.8428 39.7836 17.2451 40.6232 16.7897C41.7558 16.1652 43.0488 16.5089 44.127 15.7415C44.4997 15.4683 45.0755 15.572 45.5534 15.5359C46.1543 15.3926 46.8788 15.7302 47.3525 15.0573C47.6456 14.8881 47.9497 14.8652 48.2538 14.8423C48.6883 14.8096 49.1227 14.7768 49.4881 14.4062C49.5713 14.3509 49.6545 14.2956 49.7414 14.2891C51.1427 14.3305 52.38 13.355 53.8284 13.4419C54.2666 13.4579 54.6466 13.2823 55.0663 13.0546C55.819 12.6057 56.7063 12.784 57.5715 12.6697C58.1724 12.5264 58.897 12.864 59.3706 12.1911C59.8736 11.9081 60.4494 12.0117 61.0105 11.9205C61.6114 11.7771 62.336 12.1147 62.8096 11.4418C63.3126 11.1588 63.8884 11.2625 64.4495 11.1712C65.0504 11.0279 65.775 11.3654 66.2449 10.6438C66.9217 10.3477 67.6279 10.4415 68.2796 10.3924C68.6706 10.3629 69.0145 10.288 69.4092 10.3073C69.7604 10.3298 70.0535 10.1607 70.2487 9.85191C71.0124 9.54928 71.8055 9.63658 72.5875 9.57765C73.0654 9.54164 73.5396 9.45689 74.0212 9.46962C74.3688 9.44343 74.6221 9.32631 74.8173 9.01751C75.6245 8.71161 76.4609 8.79563 77.3262 8.68142C77.8041 8.6454 78.2784 8.56065 78.7599 8.57338C79.1075 8.54719 79.3609 8.43007 79.5561 8.12127C80.3632 7.81537 81.2431 7.89612 82.0649 7.78518C82.7601 7.7328 83.4987 7.67715 84.1938 7.62477C84.5414 7.59858 84.7947 7.48146 84.9936 7.22139C85.8405 6.86348 86.7676 6.98969 87.6763 6.87221C88.4148 6.81655 89.11 6.76418 89.8486 6.70852C90.1962 6.68233 90.4495 6.56521 90.6447 6.25641C91.7088 5.88213 92.8097 5.99525 93.8922 5.86467C94.8045 5.79592 95.7169 5.72717 96.6293 5.65843C96.9769 5.63224 97.2302 5.51512 97.4291 5.25505C98.6235 4.87095 99.8982 4.97097 101.111 4.83057C102.328 4.73891 103.544 4.64724 104.761 4.55558C105.108 4.52939 105.409 4.45774 105.647 4.14566C105.897 3.9798 106.158 3.96016 106.418 3.94051C108.33 3.79647 110.198 3.65571 112.11 3.51167C114.499 3.33161 116.845 3.15484 119.235 2.97478C119.539 2.95187 119.894 3.02316 120.086 2.66561C126.516 2.18111 132.946 1.69661 139.332 1.21538C139.575 1.54019 139.915 1.41652 140.22 1.39361C142.262 1.23974 144.304 1.08588 146.346 0.93202C146.693 0.905831 147.037 0.830902 147.32 1.1037C149.199 1.10915 151.111 0.965107 152.979 0.82434C153.214 1.05167 153.475 1.03203 153.736 1.01238C154.648 0.943638 155.561 0.874891 156.473 0.806144C156.777 0.783229 157.081 0.760313 157.4 0.932355C158.747 0.830873 160.097 0.778128 161.444 0.676644C161.774 0.994905 162.154 0.819223 162.505 0.841774C163.251 0.883601 163.968 0.535511 164.692 0.873049C165.778 0.791207 166.912 0.754831 167.998 0.67299C168.284 0.994524 168.621 0.822117 168.972 0.844667C169.584 0.847575 170.217 0.554773 170.812 0.902131C171.767 0.83011 172.727 0.806829 173.683 0.734809C174.012 1.05307 174.392 0.877388 174.744 0.899939C175.356 0.902846 175.949 0.662058 176.496 0.96395C177.191 0.911571 177.934 0.904659 178.629 0.85228C178.915 1.17382 179.252 1.00141 179.603 1.02396C180.128 1.03341 180.635 0.799171 181.182 1.10106C181.964 1.04214 182.706 1.03522 183.488 0.976298C183.771 1.24909 184.111 1.12543 184.462 1.14798C184.9 1.16398 185.324 0.985022 185.737 1.248C186.302 1.20544 186.867 1.16288 187.435 1.16906C187.721 1.4906 188.058 1.31819 188.409 1.34074C188.847 1.35674 189.271 1.17779 189.684 1.44076C190.379 1.38838 191.121 1.38147 191.816 1.32909C192.099 1.60189 192.396 1.48149 192.704 1.50732C193.008 1.4844 193.308 1.41274 193.631 1.63353C194.065 1.60079 194.5 1.56805 194.938 1.58406C196.249 1.58333 197.553 2.07326 198.841 1.7801C199.124 2.05289 199.421 1.9325 199.729 1.95832C200.033 1.9354 200.337 1.91249 200.656 2.08453C201.09 2.05179 201.528 2.0678 201.963 2.03506C203.136 1.94667 204.281 2.64466 205.432 2.26384C205.714 2.53663 206.011 2.41624 206.319 2.44206C206.623 2.41915 206.924 2.34749 207.246 2.56827C207.681 2.53553 208.115 2.5028 208.51 2.52207C208.749 2.79814 209.089 2.67448 209.397 2.7003C209.701 2.67738 210.002 2.60573 210.324 2.82651C210.932 2.78068 211.7 2.5268 212.2 2.78322C212.928 3.1695 213.569 2.97417 214.271 3.01928C214.51 3.29534 214.811 3.22369 215.071 3.20405C215.419 3.17786 215.763 3.10293 216.042 3.32698C217.421 3.07601 218.751 3.90712 220.123 3.55867C220.917 4.23411 221.872 3.57394 222.64 3.9082C223.585 4.27811 224.519 3.91366 225.327 4.19591C226.134 4.47816 226.942 4.17226 227.579 4.51634C228.441 4.94154 229.252 4.68438 230.089 4.7684C230.371 5.04119 230.755 4.91425 231.034 5.13831C232.279 4.84841 233.46 5.44565 234.688 5.50021C235.39 5.54531 236.216 5.48311 236.85 5.77845C237.618 6.11272 238.381 5.81009 239.059 6.10217C239.827 6.43643 240.677 6.12726 241.311 6.4226C242.036 6.76014 242.923 6.35022 243.39 6.75614C244.18 7.38284 245.124 6.57645 245.755 7.4112C245.802 7.45667 245.846 7.45339 245.889 7.45012C246.957 7.12458 248.076 7.4814 248.978 7.85458C249.967 8.22121 251.06 7.6487 251.952 8.46381C251.952 8.46381 251.995 8.46054 252.038 8.45727C252.976 8.14155 253.929 8.60893 254.693 8.89446C255.725 9.25782 256.818 8.68531 257.71 9.50042C257.71 9.50042 257.753 9.49715 257.797 9.49387C258.734 9.17815 259.607 9.74957 260.495 9.92779C261.291 10.0638 262.24 9.89433 262.986 10.5243C263.034 10.5698 263.077 10.5665 263.12 10.5632C263.975 10.3028 264.79 10.6825 265.511 10.9713C266.322 11.3023 267.252 10.8891 267.963 11.6198C268.01 11.6653 268.053 11.662 268.097 11.6588C269.038 11.3918 269.911 11.9632 270.838 12.0894C271.41 12.1443 272.236 12.0821 272.761 12.6797C272.808 12.7252 272.899 12.7674 272.942 12.7641C273.797 12.5037 274.655 12.8801 275.293 13.2242C276.112 13.6527 276.951 13.1973 277.698 13.8273C278.071 14.1423 278.77 14.1386 279.208 14.1546C280.001 14.2419 280.885 14.3714 281.566 14.7122C282.337 15.0952 283.152 14.8868 283.967 15.2665C284.467 15.523 285.22 15.6623 285.887 15.8081C286.553 15.954 287.295 15.9471 287.857 16.4439C287.904 16.4894 287.995 16.5316 288.038 16.5283C288.805 16.2744 289.498 16.7614 290.128 17.008C290.715 17.2579 291.413 17.2543 292.004 17.5529C292.547 17.806 293.257 17.9486 293.924 18.0945C294.59 18.2403 295.332 18.2334 295.894 18.7303C295.941 18.7757 296.032 18.8179 296.075 18.8147C296.799 18.564 297.376 19.2559 298.121 19.2977C298.516 19.317 299.096 19.4694 299.476 19.8818C299.527 19.976 299.661 20.015 299.704 20.0117C300.428 19.7611 301.081 20.3001 301.707 20.498C302.602 20.7737 303.652 20.7926 304.406 21.52C304.5 21.611 304.631 21.6011 304.761 21.5913C305.46 21.5877 306.054 21.9351 306.652 22.3311C306.742 22.3733 306.833 22.4155 306.92 22.409C307.662 22.4021 308.267 22.8956 308.941 23.139C309.477 23.2947 309.952 23.7981 310.596 23.6515C311.023 23.5213 311.404 23.9337 311.723 24.1058C312.77 24.6641 313.914 24.7739 314.874 25.3388C315.878 25.9004 316.957 26.3092 318.004 26.8675C318.729 27.2051 319.497 27.5393 320.265 27.8736C320.989 28.2111 321.793 28.4446 322.446 28.9837C322.728 29.2565 323.166 29.2725 323.485 29.4445C324.532 30.0028 325.579 30.5612 326.623 31.0707C327.532 31.5414 328.413 32.2103 329.401 32.5769C329.941 32.7813 330.485 33.0345 330.952 33.4404C331.376 33.8496 331.916 34.054 332.452 34.2097C332.72 34.2875 332.782 34.528 332.963 34.6123C333.821 34.9888 334.608 35.5668 335.387 36.0472C336.075 36.4855 336.811 36.9693 337.543 37.4043C338.184 37.7971 338.717 38.4922 339.466 38.5828C339.774 38.6086 339.753 38.9043 339.938 39.0374C341.8 39.9755 343.279 41.6286 344.667 43.2396C345.291 43.9768 346.128 44.649 346.513 45.6984C346.727 46.2214 347.242 46.6728 347.59 47.2347C347.884 47.6537 348.138 48.1248 348.344 48.5503C348.856 49.5411 349.288 50.636 349.633 51.7373C350.029 52.9329 350.03 54.1092 350.209 55.3211C350.384 56.4843 350.074 57.5861 349.673 58.6456C349.493 59.1494 349.674 59.8219 349.32 60.3387C349.204 60.5435 349.053 60.8491 348.941 61.1026C348.023 63.4264 346.262 64.9806 344.924 66.944C343.94 67.2143 343.59 68.368 342.754 68.8722C342.084 69.2657 341.524 69.9452 340.865 70.485C340.247 70.9727 339.679 71.5547 339.06 72.0424C338.398 72.5335 337.634 72.8361 337.07 73.4668C336.828 73.7301 336.408 73.9578 336.111 74.0782C335.264 74.4361 334.639 75.4146 333.632 75.3924C333.463 76.0423 332.793 75.8478 332.431 76.2671C332.109 76.6345 331.403 76.5407 330.958 77.0153C330.43 77.5453 329.594 77.4613 329.069 78.04C328.744 78.3586 328.139 78.4532 327.756 78.5801C327.028 78.782 326.406 79.221 325.682 79.4716C324.828 79.732 323.872 79.8041 323.181 80.4933C323.141 80.5453 323.098 80.5486 323.054 80.5519C322.08 80.3802 321.204 80.9363 320.495 81.3819C319.533 81.9446 318.363 81.4936 317.603 82.4331C317.563 82.4851 317.52 82.4884 317.477 82.4917C316.075 82.4502 314.885 83.4712 313.476 83.3322C313.06 83.6087 312.619 83.5439 312.423 83.8527Z" fill="#2ACC32"/>
</svg>
