<svg width="24" height="24" viewBox="0 0 24 24" fill="none" xmlns="http://www.w3.org/2000/svg">
<path fill-rule="evenodd" clip-rule="evenodd" d="M2.286 9.33333C2.41578 9.33333 2.54267 9.32267 2.66667 9.30133V14.6667H1C0.911596 14.6667 0.826811 14.7018 0.764299 14.7643C0.701787 14.8268 0.666668 14.9116 0.666668 15V15.6667C0.666668 15.7551 0.701787 15.8399 0.764299 15.9024C0.826811 15.9649 0.911596 16 1 16H23C23.0884 16 23.1732 15.9649 23.2357 15.9024C23.2982 15.8399 23.3333 15.7551 23.3333 15.6667V15C23.3333 14.9116 23.2982 14.8268 23.2357 14.7643C23.1732 14.7018 23.0884 14.6667 23 14.6667H21.3333V9.30133C21.4578 9.32267 21.5847 9.33333 21.714 9.33333C22.982 9.33333 24 8.29867 24 7.034V5.44067C24.0005 5.22922 23.9637 5.01935 23.8913 4.82067L22.438 0.814C22.3518 0.575526 22.1942 0.369425 21.9866 0.223766C21.779 0.0781066 21.5316 -2.91796e-05 21.278 8.17437e-09H2.72133C2.4679 0.000294363 2.22071 0.0786549 2.01339 0.224421C1.80608 0.370188 1.6487 0.576282 1.56267 0.814667L0.109335 4.82067C0.0367509 5.01931 -0.000259582 5.22918 1.37035e-06 5.44067V7.034C1.37035e-06 8.29867 1.018 9.33333 2.286 9.33333ZM1.36267 5.27533L2.79267 1.33333H21.2067L22.6367 5.27533C22.6562 5.32867 22.666 5.38378 22.666 5.44067V7.034C22.6676 7.28838 22.5682 7.53299 22.3895 7.71412C22.2109 7.89524 21.9677 7.99806 21.7133 8C21.1933 8 20.7613 7.57333 20.7613 7.034C20.7613 6.85719 20.6911 6.68762 20.5661 6.5626C20.441 6.43757 20.2715 6.36733 20.0947 6.36733C19.9179 6.36733 19.7483 6.43757 19.6233 6.5626C19.4982 6.68762 19.428 6.85719 19.428 7.034C19.4296 7.28838 19.3302 7.53299 19.1515 7.71412C18.9729 7.89524 18.7297 7.99806 18.4753 8C17.9553 8 17.5233 7.57333 17.5233 7.03467C17.5233 6.85786 17.4531 6.68829 17.3281 6.56326C17.203 6.43824 17.0335 6.368 16.8567 6.368C16.6799 6.368 16.5103 6.43824 16.3853 6.56326C16.2602 6.68829 16.19 6.85786 16.19 7.03467C16.19 7.57333 15.758 8 15.2373 8C14.7167 8 14.2853 7.57333 14.2853 7.034C14.2853 6.85719 14.2151 6.68762 14.0901 6.5626C13.965 6.43757 13.7955 6.36733 13.6187 6.36733C13.4419 6.36733 13.2723 6.43757 13.1473 6.5626C13.0222 6.68762 12.952 6.85719 12.952 7.034C12.9536 7.28827 12.8543 7.53278 12.6758 7.71388C12.4973 7.89499 12.2543 7.99789 12 8C11.7457 7.99806 11.5026 7.89533 11.324 7.71435C11.1454 7.53337 11.0459 7.28893 11.0473 7.03467C11.0473 6.85786 10.9771 6.68829 10.8521 6.56326C10.727 6.43824 10.5575 6.368 10.3807 6.368C10.2039 6.368 10.0343 6.43824 9.90926 6.56326C9.78424 6.68829 9.714 6.85786 9.714 7.03467C9.714 7.57333 9.28267 8 8.762 8C8.24133 8 7.80933 7.57333 7.80933 7.034C7.80933 6.85719 7.73909 6.68762 7.61407 6.5626C7.48905 6.43757 7.31948 6.36733 7.14267 6.36733C6.96586 6.36733 6.79629 6.43757 6.67126 6.5626C6.54624 6.68762 6.476 6.85719 6.476 7.034C6.476 7.57267 6.04467 8 5.524 8C5.00333 8 4.57133 7.57333 4.57133 7.034C4.57133 6.85719 4.5011 6.68762 4.37607 6.5626C4.25105 6.43757 4.08148 6.36733 3.90467 6.36733C3.72786 6.36733 3.55829 6.43757 3.43326 6.5626C3.30824 6.68762 3.238 6.85719 3.238 7.034C3.238 7.57267 2.80667 8 2.286 8C1.76467 8 1.33333 7.57333 1.33333 7.034V5.44067C1.33333 5.38333 1.34311 5.32822 1.36267 5.27533ZM20 8.748C19.5823 9.12563 19.0391 9.33429 18.476 9.33333C18.1748 9.33385 17.8765 9.27433 17.5986 9.15826C17.3207 9.04219 17.0687 8.8719 16.8573 8.65733C16.6459 8.87198 16.3938 9.04232 16.1157 9.15839C15.8377 9.27446 15.5393 9.33394 15.238 9.33333C14.9368 9.33385 14.6385 9.27433 14.3606 9.15826C14.0827 9.04219 13.8307 8.8719 13.6193 8.65733C13.4079 8.87198 13.1558 9.04232 12.8777 9.15839C12.5997 9.27446 12.3013 9.33394 12 9.33333C11.6987 9.33394 11.4003 9.27446 11.1223 9.15839C10.8442 9.04232 10.5921 8.87198 10.3807 8.65733C10.1693 8.8719 9.9173 9.04219 9.63938 9.15826C9.36145 9.27433 9.06318 9.33385 8.762 9.33333C8.128 9.33333 7.55533 9.074 7.14267 8.65733C6.93131 8.8719 6.6793 9.04219 6.40138 9.15826C6.12345 9.27433 5.82519 9.33385 5.524 9.33333C4.93733 9.33333 4.404 9.11133 4 8.748V14.6667H5.66667C5.57826 14.6667 5.49348 14.6315 5.43096 14.569C5.36845 14.5065 5.33333 14.4217 5.33333 14.3333V13C5.33333 12.9116 5.36845 12.8268 5.43096 12.7643C5.49348 12.7018 5.57826 12.6667 5.66667 12.6667H7.66667C7.75507 12.6667 7.83986 12.7018 7.90237 12.7643C7.96488 12.8268 8 12.9116 8 13V13.3333H9C9.0884 13.3333 9.17319 13.3685 9.2357 13.431C9.29821 13.4935 9.33333 13.5783 9.33333 13.6667V14.3333C9.33333 14.4217 9.29821 14.5065 9.2357 14.569C9.17319 14.6315 9.0884 14.6667 9 14.6667H20V8.748ZM1.33333 18C1.33333 17.8232 1.40357 17.6536 1.5286 17.5286C1.65362 17.4036 1.82319 17.3333 2 17.3333H22C22.1768 17.3333 22.3464 17.4036 22.4714 17.5286C22.5964 17.6536 22.6667 17.8232 22.6667 18V23.3333C22.6667 23.5101 22.5964 23.6797 22.4714 23.8047C22.3464 23.9298 22.1768 24 22 24H2C1.82319 24 1.65362 23.9298 1.5286 23.8047C1.40357 23.6797 1.33333 23.5101 1.33333 23.3333V18ZM2.66667 22.6667V18.6667H21.3333V22.6667H2.66667Z" fill="#282C4B"/>
</svg>
