<svg width="26" height="26" viewBox="0 0 26 26" fill="none" xmlns="http://www.w3.org/2000/svg">
<path d="M10.1106 2.43972C10.845 1.81466 11.2122 1.50213 11.595 1.31852C12.0335 1.10884 12.5133 1 12.9993 1C13.4854 1 13.9652 1.10884 14.4037 1.31852C14.7878 1.50083 15.155 1.81336 15.8881 2.43972C16.1811 2.68975 16.327 2.81346 16.4832 2.91763C16.8411 3.15747 17.2429 3.32389 17.6656 3.40726C17.8492 3.44373 18.0406 3.45935 18.4234 3.49061C19.3857 3.56613 19.8662 3.6052 20.2672 3.74714C20.7253 3.90881 21.1414 4.17095 21.485 4.51435C21.8286 4.85775 22.091 5.27371 22.253 5.73171C22.3949 6.13409 22.4327 6.61461 22.5095 7.57564C22.5395 7.95849 22.5551 8.14992 22.5916 8.33483C22.6749 8.75675 22.8416 9.15913 23.0812 9.51594C23.1853 9.6722 23.3103 9.81805 23.5591 10.111C24.1841 10.8455 24.4979 11.2127 24.6815 11.5956C24.8912 12.0341 25 12.5139 25 13C25 13.4861 24.8912 13.9659 24.6815 14.4044C24.4992 14.7873 24.1854 15.1545 23.5591 15.889C23.3888 16.0783 23.2293 16.277 23.0812 16.4841C22.8414 16.8415 22.675 17.2429 22.5916 17.6652C22.5551 17.8501 22.5395 18.0415 22.5095 18.4244C22.4327 19.3854 22.3949 19.8672 22.253 20.2683C22.091 20.7263 21.8286 21.1422 21.485 21.4856C21.1414 21.829 20.7253 22.0912 20.2672 22.2529C19.8662 22.3961 19.3857 22.4339 18.4234 22.5094C18.0406 22.5406 17.8505 22.5563 17.6656 22.5927C17.2429 22.6761 16.8411 22.8425 16.4832 23.0824C16.2766 23.2305 16.0783 23.3901 15.8894 23.5603C15.155 24.1853 14.7878 24.4979 14.405 24.6815C13.9665 24.8912 13.4867 25 13.0007 25C12.5146 25 12.0348 24.8912 11.5963 24.6815C11.2122 24.4992 10.845 24.1866 10.1119 23.5603C9.92252 23.39 9.72386 23.2305 9.51677 23.0824C9.15894 22.8425 8.75706 22.6761 8.33443 22.5927C8.08355 22.5509 7.83055 22.5231 7.57659 22.5094C6.6143 22.4339 6.13382 22.3948 5.73276 22.2529C5.27467 22.0912 4.85857 21.829 4.51496 21.4856C4.17135 21.1422 3.90895 20.7263 3.74699 20.2683C3.60506 19.8672 3.5673 19.3854 3.49047 18.4244C3.47747 18.17 3.45008 17.9165 3.40844 17.6652C3.32491 17.243 3.1585 16.8415 2.91883 16.4841C2.81466 16.3278 2.68965 16.182 2.44095 15.889C1.81592 15.1545 1.5021 14.7873 1.3185 14.4044C1.10883 13.9659 1 13.4861 1 13C1 12.5139 1.10883 12.0341 1.3185 11.5956C1.5021 11.2127 1.81462 10.8455 2.44095 10.111C2.68965 9.81805 2.81466 9.6722 2.91883 9.51594C3.1585 9.15847 3.32491 8.75703 3.40844 8.33483C3.4449 8.14992 3.46052 7.95849 3.49047 7.57564C3.5673 6.61461 3.60506 6.13409 3.74699 5.73171C3.90909 5.27357 4.17169 4.85753 4.51553 4.51412C4.85937 4.17071 5.27573 3.90864 5.73406 3.74714C6.13512 3.6052 6.61561 3.56613 7.57789 3.49061C7.96072 3.45935 8.15083 3.44373 8.33573 3.40726C8.75836 3.32389 9.16024 3.15747 9.51808 2.91763C9.67433 2.81346 9.81887 2.68975 10.1106 2.43972Z" stroke="#282C4B" stroke-width="1.5"/>
<path d="M9.09357 16.9073L16.9064 9.09399" stroke="#282C4B" stroke-width="1.5" stroke-linecap="round"/>
<path d="M17.5575 16.2561C17.5575 16.6015 17.4203 16.9327 17.1761 17.1769C16.9319 17.4211 16.6007 17.5583 16.2553 17.5583C15.91 17.5583 15.5788 17.4211 15.3346 17.1769C15.0904 16.9327 14.9532 16.6015 14.9532 16.2561C14.9532 15.9108 15.0904 15.5795 15.3346 15.3353C15.5788 15.0911 15.91 14.9539 16.2553 14.9539C16.6007 14.9539 16.9319 15.0911 17.1761 15.3353C17.4203 15.5795 17.5575 15.9108 17.5575 16.2561ZM11.0468 9.74508C11.0468 10.0904 10.9096 10.4217 10.6654 10.6659C10.4212 10.9101 10.09 11.0473 9.74464 11.0473C9.3993 11.0473 9.06809 10.9101 8.82389 10.6659C8.57969 10.4217 8.4425 10.0904 8.4425 9.74508C8.4425 9.39971 8.57969 9.06849 8.82389 8.82428C9.06809 8.58007 9.3993 8.44287 9.74464 8.44287C10.09 8.44287 10.4212 8.58007 10.6654 8.82428C10.9096 9.06849 11.0468 9.39971 11.0468 9.74508Z" fill="#282C4B"/>
</svg>
